<?xml version="1.0" standalone="no"?>
<!DOCTYPE svg PUBLIC "-//W3C//DTD SVG 20010904//EN"
 "http://www.w3.org/TR/2001/REC-SVG-20010904/DTD/svg10.dtd">
<svg version="1.0" xmlns="http://www.w3.org/2000/svg"
 width="860.000000pt" height="860.000000pt" viewBox="0 0 860.000000 860.000000"
 preserveAspectRatio="xMidYMid meet">
<metadata>
Created by potrace 1.14, written by Peter Selinger 2001-2017
</metadata>
<g transform="translate(0.000000,860.000000) scale(0.100000,-0.100000)"
fill="#000000" stroke="none">
<path d="M1740 8294 c-429 -54 -800 -251 -1061 -562 -182 -218 -295 -454 -351
-736 -32 -159 -32 -433 0 -592 131 -653 610 -1135 1267 -1276 93 -19 136 -21
603 -25 l502 -4 0 -799 0 -799 -502 -4 c-467 -4 -510 -6 -603 -25 -657 -141
-1136 -623 -1267 -1276 -32 -159 -32 -433 0 -592 132 -657 619 -1144 1276
-1276 159 -32 433 -32 592 0 581 116 1041 519 1223 1072 71 216 73 242 78 798
l4 502 799 0 799 0 4 -502 c4 -467 6 -510 25 -603 141 -657 623 -1136 1276
-1267 159 -32 433 -32 592 0 581 116 1039 518 1223 1071 57 174 76 294 76 501
0 151 -4 205 -23 296 -131 653 -610 1135 -1267 1276 -93 19 -136 21 -602 25
l-503 4 0 799 0 799 503 4 c466 4 509 6 602 25 370 79 687 266 916 540 182
218 295 454 351 736 32 159 32 433 0 592 -132 657 -619 1144 -1276 1276 -159
32 -433 32 -592 0 -653 -131 -1135 -610 -1276 -1267 -19 -93 -21 -136 -25
-602 l-4 -503 -799 0 -799 0 -4 503 c-5 555 -7 581 -78 797 -181 549 -641 954
-1214 1070 -97 20 -380 34 -465 24z m365 -819 c217 -59 417 -224 515 -429 74
-155 73 -146 77 -674 l4 -473 -473 4 c-528 4 -519 3 -674 77 -160 77 -297 213
-374 374 -60 126 -74 190 -74 346 0 156 14 220 74 346 110 229 333 399 582
444 73 13 271 4 343 -15z m4800 0 c217 -59 416 -224 515 -429 60 -126 74 -190
74 -346 0 -156 -14 -220 -74 -346 -77 -161 -214 -297 -374 -374 -155 -74 -146
-73 -674 -77 l-473 -4 4 473 c4 528 3 519 77 674 110 229 333 399 582 444 73
13 271 4 343 -15z m-1805 -3175 l0 -800 -800 0 -800 0 0 800 0 800 800 0 800
0 0 -800z m-2403 -2072 c-4 -528 -3 -519 -77 -674 -77 -160 -213 -297 -374
-374 -126 -60 -190 -74 -346 -74 -156 0 -220 14 -346 74 -160 77 -297 214
-374 374 -60 126 -74 190 -74 346 0 156 14 220 74 346 110 229 338 402 582
443 29 5 252 9 496 10 l443 1 -4 -472z m4208 448 c276 -80 497 -303 571 -576
25 -90 25 -310 0 -400 -75 -276 -300 -501 -576 -576 -90 -25 -310 -25 -400 0
-224 60 -421 224 -520 430 -74 155 -73 146 -77 674 l-4 473 473 -4 c413 -3
481 -6 533 -21z"/>
</g>
</svg>
